<svg xmlns="http://www.w3.org/2000/svg" data-name="6" viewBox="0 0 800 600"><defs><clipPath id="a"><path fill="none" d="M402.98 130.81h167.15v335.28H402.98z"/></clipPath></defs><path fill="#ff9d9c" d="M392.88 306.18c-3.95 9.33-5.23 11.18-6 11.85s-10 2.87-10.18 4.19.94 15.19 2 29.44c.91 12.65-3.38 35.91-21.61 25.57-.3-.16-.6-.34-.91-.53a93.44 93.44 0 0 1-8.68-6 80.21 80.21 0 0 1 8.91-15.77 27.87 27.87 0 0 1 2.09-2.48 6.2 6.2 0 0 0 1.37 1 1.25 1.25 0 0 0 1.08.16 1.89 1.89 0 0 0 .72-1.06c1.33-3.3 2.2-13.33 1.43-19.49-.9-7.23-1.58-12.2 3.39-16.15s26.39-10.73 26.39-10.73Z" class="colorff9d9c svgShape"/><rect width="39.88" height="42.38" x="132.06" y="248.45" fill="#c3e6e6" rx="7.93" ry="7.93" class="colorc3e6e6 svgShape"/><rect width="39.88" height="42.38" x="132.06" y="381.87" fill="#c3e6e6" rx="7.93" ry="7.93" class="colorc3e6e6 svgShape"/><rect width="94.52" height="112.1" x="189.37" y="152.89" fill="#ffc5cb" rx="13.33" ry="13.33" class="colorffc5cb svgShape"/><path fill="#ff9d9c" d="M267.13 208.94a30.49 30.49 0 1 1-30.5-30.49 30.45 30.45 0 0 1 30.5 30.49Z" class="colorff9d9c svgShape"/><path fill="#ffffff" d="M243.77 216a12.09 12.09 0 1 0-14.29 0 16.14 16.14 0 0 0-9 14.46v4.32a30.45 30.45 0 0 0 32.28 0v-4.33a16.14 16.14 0 0 0-8.99-14.45Z" class="colorfff svgShape"/><rect width="105.67" height="125.32" x="235.72" y="116.32" fill="#ffffff" stroke="#000" stroke-miterlimit="10" rx="13.33" ry="13.33" class="colorfff svgShape colorStroke000 svgStroke"/><path fill="#ff9d9c" d="M319.89 198.57a31.34 31.34 0 1 1-31.33-31.33 31.22 31.22 0 0 1 31.33 31.33Z" class="colorff9d9c svgShape"/><circle cx="288.55" cy="198.57" r="19.18" fill="#ffffff" class="colorfff svgShape"/><path fill="#ffc5cb" d="M269.38 198.57a19 19 0 0 0 3.09 10.43l-9.8 7.23A31.35 31.35 0 0 1 264.9 178l8.46 8.86a19.08 19.08 0 0 0-3.98 11.71Z" class="colorffc5cb svgShape"/><path fill="#6b6ce3" d="M312.49 218.78a31.34 31.34 0 0 1-49.82-2.55l9.8-7.23a19.17 19.17 0 0 0 31.42 1.09c2.73 2.73 5.88 5.91 8.6 8.69Z" class="color6b6ce3 svgShape"/><rect width="52.21" height="7.65" x="262.45" y="132.46" fill="#6b6ce3" rx="2.09" ry="2.09" class="color6b6ce3 svgShape"/><rect width="120.09" height="142.42" x="312.49" y="90.37" fill="#ffc5cb" rx="13.33" ry="13.33" class="colorffc5cb svgShape"/><path fill="#9c92dc" d="M218.23 334.08h165.61v21.08H218.23a10.54 10.54 0 0 1-10.54-10.54 10.54 10.54 0 0 1 10.54-10.54Z" transform="rotate(-28.25 295.806 344.636)" class="color9c92dc svgShape"/><rect width="16.01" height="49.58" x="386.63" y="201.7" fill="#011859" rx="8" ry="8" class="color011859 svgShape"/><path fill="none" stroke="#011859" stroke-miterlimit="10" stroke-width=".75" d="M347.89 369.2c-1.81 2.34-11.75 10.47-13.33 9.05s1.77-5.76 12-10.11M345.83 367.54s-11.16 6-12.77 1.69 12.77-1.69 12.77-1.69ZM238.61 304.75c.07-.06-.6-13.72 3.77-15.1s-3.77 15.1-3.77 15.1ZM239.86 304.51c3.65-7.61 6.17-9.88 9-9s-3.05 7.55-6.23 9" class="colorStroke011859 svgStroke"/><path fill="#011859" d="M276.6 286.76c.92 4.38 17.36 14.23 32.06 16s34.91-7 39.18-15c2.66-5-5.17-4.17-4.85-8.65s-1-5-4.85-5.27-4.25-4.78-3.6-7.12c2.94-10.6-3.75-8.86-3.75-8.86s-1.51-11.47-16.89-11c-11.1.34-16.34 5.87-18.14 9.7-1.24 2.64-1 7.9-4.28 8.53-4.07.78-10.06 4.2-9.25 9.46 1.25 8.07-5.87 11.07-5.63 12.21Z" class="color011859 svgShape"/><path fill="#ff9d9c" d="M335.16 280.1a13.75 13.75 0 0 1-9.26 13.62 8.9 8.9 0 0 1-3.11.53 11.94 11.94 0 0 0-1.76 7 19.52 19.52 0 0 0 2 7.89s-17.55 3.24-23.71-5.6c0 0 6.39-7.32 4.35-19.08-4.7-.72-6-4.38-5.49-6.13s3.26-4.62 7.16-1.27c0 0 6.64-5.17 3.14-17.72 0 0 5.65 3.62 8.68 8.74 0 0 9.1-4.93 12.55-7.79-.02 0 5.22 10.35 5.45 19.81Z" class="colorff9d9c svgShape"/><path fill="none" stroke="#e44543" stroke-miterlimit="10" d="M303.65 284.46a15.76 15.76 0 0 0 3.88-.23M305.09 279.17c-2.1-2.07-5.14-1.06-4.51 1.06" class="colorStrokee44543 svgStroke"/><path fill="#e44543" d="M322.79 294.25a11.94 11.94 0 0 0-1.76 7c-5.89-3.06-8.22-12.46-8.22-12.46a12.52 12.52 0 0 0 9.98 5.46Z" class="colore44543 svgShape"/><ellipse cx="322.59" cy="271.87" fill="#011859" rx="1.16" ry="1.67" transform="rotate(-19.52 322.659 271.91)" class="color011859 svgShape"/><ellipse cx="330.38" cy="268.66" fill="#011859" rx="1.16" ry="1.67" transform="rotate(-19.52 330.453 268.702)" class="color011859 svgShape"/><path fill="#ff9d9c" d="m256.61 353.7-19.06 10.24s-28.82-31.64-18.76-51a13.85 13.85 0 0 1 6-6.48c2.69-1.46 6.6-2.57 12.63-3.14 2.15 6.76 5.36 16.59 7.28 21.05a5.28 5.28 0 0 0-.82.28c-6.73 2.7-2.64 15.51 12.73 29.05Z" class="colorff9d9c svgShape"/><path fill="#e44543" d="M364.27 357.84c-4 3.56-6.43.61-7.84-2.93a27.87 27.87 0 0 1 2.09-2.48 6.2 6.2 0 0 0 1.37 1 1.25 1.25 0 0 0 1.08.16 1.89 1.89 0 0 0 .72-1.06c2.32-.29 3.57-5.74 3.57-5.74s4.34 6.28-.99 11.05ZM244.69 324.32a5.28 5.28 0 0 0-.82.28l-19.09-18.19c2.69-1.46 6.6-2.57 12.63-3.14 2.15 6.73 5.35 16.6 7.28 21.05Z" class="colore44543 svgShape"/><path fill="#fec942" d="M157.47 498.4c5.83-9 23.81-35.77 24.58-37.35 8.93-3.93 16.5-2.1 26.63-.94l2 24.23s-13.76 4.76-22.92 6.62-20.38 10.27-30.29 7.44Z" class="colorfec942 svgShape"/><path fill="#0038ad" d="M311.32 439.75s-.36 1.4-1 3.7c-.79 2.9-2 7.22-3.43 12-3.84 12.94-9.26 29.26-12.27 29.82-1.9.36-15.66 1.56-31.94 2.91-26.52 2.2-59.81 4.8-59.81 4.8l-6.19-36.77h59.85c10.64-.13 13.08-.79 15.09-3.59a19.29 19.29 0 0 0 1.83-5.53 221.64 221.64 0 0 0 4-30.19c.46-9.93-.82-16.82.63-34.21l12.36 21.24Z" class="color0038ad svgShape"/><path fill="none" stroke="#011859" stroke-miterlimit="10" stroke-width=".75" d="m210.67 492.38-5.19-40.56" class="colorStroke011859 svgStroke"/><path fill="#011859" d="m311.32 439.75-20.86-35.85c-.17-.28-6 5.27-1 15.92.71 1.52 1.61 3.39 2.62 5.49q.21.47.51 1.06l1.29 2.65c5.87 12.91 7.67 29.49 2.4 33.07-5.62 3.83-53.31 9.05-53.56 9.32 0 0 9.46 15.09 12.84 15.94a60.93 60.93 0 0 0 7.15.84c16.29-1.35 30-2.54 31.94-2.91 3-.56 8.43-16.88 12.27-29.82 1.11-3.71 2.08-7.13 2.83-9.83.97-3.57 1.57-5.88 1.57-5.88Z" opacity=".5" class="color011859 svgShape"/><path fill="#fec942" d="M181.19 508.72c6.43-8.6 28.21-36.92 29.08-38.45l24.07 5.34.87 22.66s-14.05 3.82-23.31 5.07-21.02 8.87-30.71 5.38Z" class="colorfec942 svgShape"/><path fill="none" stroke="#011859" stroke-miterlimit="10" stroke-width=".75" d="M181.19 508.72c4.31-5.78 15.55-20.43 22.73-29.91M211.9 503.34l1.42-7.14M219.16 502.08l1.89-9.09M187.76 490.96l.93-7.21M194.91 489.22l1.28-9.19" class="colorStroke011859 svgStroke"/><path fill="#d0dafd" d="M358.52 352.43c-4.16 4.37-8.63 12.66-11 18.25-12.68-9.84-17.92-19.25-17.92-19.25s-5.58 13.29-.64 33.06c.11.43.22.87.33 1.32 0 0-33.9-2.85-51.18-3.14a.9.9 0 0 1 0-.16c-.32-11 3.52-52.18 3.52-52.18s-25.82-7-35.48-6.25a8.42 8.42 0 0 0-1.45.24c-1.92-4.46-5.13-14.29-7.28-21.05a141 141 0 0 1 18.31-.24c29.36 1.17 43.59.52 43.59.52s26.23-1.5 30.28 3.25 14.9 24.84 19.52 33c3.22 5.64 6.88 10.5 9.4 12.63Z" class="colord0dafd svgShape"/><circle cx="251.01" cy="309.56" r="2.69" fill="#9c92dc" class="color9c92dc svgShape"/><circle cx="269.11" cy="320.62" r="2.69" fill="#9c92dc" class="color9c92dc svgShape"/><circle cx="292.07" cy="309.73" r="2.69" fill="#9c92dc" class="color9c92dc svgShape"/><circle cx="311.8" cy="351.43" r="2.69" fill="#9c92dc" class="color9c92dc svgShape"/><circle cx="319.87" cy="375.09" r="2.69" fill="#9c92dc" class="color9c92dc svgShape"/><circle cx="296.21" cy="357.91" r="2.69" fill="#9c92dc" class="color9c92dc svgShape"/><circle cx="287.58" cy="375.97" r="2.69" fill="#9c92dc" class="color9c92dc svgShape"/><circle cx="308.29" cy="318.03" r="2.69" fill="#9c92dc" class="color9c92dc svgShape"/><circle cx="326.71" cy="310.31" r="2.69" fill="#9c92dc" class="color9c92dc svgShape"/><circle cx="334.19" cy="330.91" r="2.69" fill="#9c92dc" class="color9c92dc svgShape"/><circle cx="341.64" cy="356.78" r="2.69" fill="#9c92dc" class="color9c92dc svgShape"/><circle cx="293.52" cy="334.95" r="2.69" fill="#9c92dc" class="color9c92dc svgShape"/><path fill="#0038ad" d="M330.27 499.6c-31.41 3.19-97.1 3.73-97.1 3.73l-6.92-31.53s56.39-1.3 74.28-1.89c2.22-.07 3.84-.14 4.7-.19 6.09-.35 8.83-1.1 9.31-3.34a5.27 5.27 0 0 0-.09-2.26c-.87-4.07-.44-12-12-33.18s-23.67-26.46-24.38-48.28c17.27.29 51.18 3.14 51.18 3.14 5.1 20.08 15.89 56.36 19.22 66.79 3.44 10.66 13.21 43.83-18.2 47.01Z" class="color0038ad svgShape"/><path fill="none" stroke="#011859" stroke-miterlimit="10" stroke-width=".75" d="m247.47 471.31 47.76-1.04" class="colorStroke011859 svgStroke"/><path fill="#011859" d="M300.53 469.91c2.22-.07 3.84-.14 4.7-.19 6.09-.35 8.83-1.1 9.31-3.34a27.26 27.26 0 0 0 9-10.09c6.39 19.33-13.88 21.12-23.01 13.62ZM270.92 458.65c-9 2.9-14.38-2.46-14.38-2.46 10.64-.13 13.08-.79 15.09-3.59a19.29 19.29 0 0 0 1.83-5.53c3.23-1.34 6-7.66 6-7.66s.54 16.35-8.54 19.24ZM322.39 410.11c-11.06 2.67-17.49-7.86-9.73-15.73-.01 0 5.91 12.74 9.73 15.73Z" opacity=".5" class="color011859 svgShape"/><path fill="none" stroke="#011859" stroke-miterlimit="10" stroke-width=".75" d="M309.67 445.88a146.18 146.18 0 0 0-7.18-14.93 133.75 133.75 0 0 0-11.08-16.79" class="colorStroke011859 svgStroke"/><path fill="#ffc5cb" d="m578.44 155.47-1.44 5.35a26.82 26.82 0 0 0-6.11 2.12l-4.48-3.28a2.66 2.66 0 0 0-3.34.16l-5.21 4.64a2.66 2.66 0 0 0-.55 3.3l2.73 4.83a26.82 26.82 0 0 0-2.83 5.82l-5.48.85a2.66 2.66 0 0 0-2.25 2.47l-.41 7a2.66 2.66 0 0 0 1.94 2.72l5.35 1.48a26.82 26.82 0 0 0 2.12 6.11l-3.28 4.48a2.66 2.66 0 0 0 .16 3.34L560 212a2.66 2.66 0 0 0 3.3.55l4.83-2.73a26.82 26.82 0 0 0 5.82 2.83l.85 5.48a2.66 2.66 0 0 0 2.47 2.25l7 .41a2.66 2.66 0 0 0 2.72-1.94l1.48-5.35a26.82 26.82 0 0 0 6.11-2.12l4.48 3.28a2.66 2.66 0 0 0 3.34-.16l5.21-4.64a2.66 2.66 0 0 0 .55-3.3l-2.73-4.83a26.82 26.82 0 0 0 2.83-5.82l5.48-.85a2.66 2.66 0 0 0 2.25-2.47l.41-7a2.66 2.66 0 0 0-1.94-2.72l-5.46-1.41a26.82 26.82 0 0 0-2.12-6.11l3.28-4.48a2.66 2.66 0 0 0-.16-3.34l-4.64-5.21a2.66 2.66 0 0 0-3.3-.55l-4.83 2.73a26.82 26.82 0 0 0-5.82-2.83l-.85-5.48a2.66 2.66 0 0 0-2.47-2.25l-7-.41a2.66 2.66 0 0 0-2.65 1.94ZM597 188a14.38 14.38 0 1 1-13.51-15.2A14.38 14.38 0 0 1 597 188Z" class="colorffc5cb svgShape"/><path fill="#6b6ce3" d="m622.26 194.58.3 3.19a15.5 15.5 0 0 0-2.86 2.41l-3.1-.85a1.54 1.54 0 0 0-1.77.78l-1.83 3.58a1.54 1.54 0 0 0 .38 1.89l2.47 2a15.5 15.5 0 0 0-.32 3.73l-2.79 1.59a1.54 1.54 0 0 0-.7 1.8l1.22 3.85a1.54 1.54 0 0 0 1.61 1.07l3.19-.3a15.5 15.5 0 0 0 2.41 2.86l-.85 3.1a1.54 1.54 0 0 0 .78 1.77l3.58 1.86a1.54 1.54 0 0 0 1.89-.38l2-2.47a15.5 15.5 0 0 0 3.73.32l1.59 2.79a1.54 1.54 0 0 0 1.8.7l3.85-1.22a1.54 1.54 0 0 0 1.07-1.61l-.3-3.19a15.5 15.5 0 0 0 2.86-2.41l3.1.85a1.54 1.54 0 0 0 1.77-.78l1.86-3.58a1.54 1.54 0 0 0-.38-1.89l-2.47-2a15.5 15.5 0 0 0 .32-3.73l2.79-1.59a1.54 1.54 0 0 0 .7-1.8l-1.16-3.86a1.54 1.54 0 0 0-1.61-1.07l-3.19.3a15.5 15.5 0 0 0-2.41-2.86l.85-3.1a1.54 1.54 0 0 0-.78-1.77l-3.58-1.86a1.54 1.54 0 0 0-1.89.38l-2 2.47a15.5 15.5 0 0 0-3.73-.32l-1.66-2.78a1.54 1.54 0 0 0-1.8-.7l-3.87 1.25a1.54 1.54 0 0 0-1.07 1.58ZM639 208.31a8.31 8.31 0 1 1-10.43-5.42 8.31 8.31 0 0 1 10.43 5.42Z" class="color6b6ce3 svgShape"/><rect width="187.81" height="376.71" x="392.65" y="110.09" fill="#011859" rx="20.43" ry="20.43" class="color011859 svgShape"/><path fill="#ffffff" d="M402.98 130.81h167.15v335.28H402.98z" class="colorfff svgShape"/><g clip-path="url(#a)" fill="#000000" class="color000 svgShape"><rect width="89.99" height="107.14" x="441.56" y="95.87" fill="none" stroke="#90d6d4" stroke-miterlimit="10" rx="6.95" ry="6.95" class="colorStroke90d6d4 svgStroke"/><path fill="#c3e6e6" d="M531.55 169.5v26.56a7 7 0 0 1-6.95 6.94h-76.09a7 7 0 0 1-6.95-6.95v-20.11c6.64-11.55 24.64-37.61 34-36.7s15 24.7 20.44 26.47c7.72 2.54 11.63-9.26 14.61-12 6.26-5.71 14.51 5.12 20.94 15.79Z" class="colorc3e6e6 svgShape"/><rect width="89.99" height="107.14" x="441.56" y="393.89" fill="none" stroke="#90d6d4" stroke-miterlimit="10" rx="6.95" ry="6.95" class="colorStroke90d6d4 svgStroke"/><path fill="#90d6d4" d="M531.55 467.52v26.56a7 7 0 0 1-6.95 6.92h-76.09a7 7 0 0 1-6.95-6.95V474c6.64-11.55 24.64-37.61 34-36.7s15 24.7 20.44 26.47c7.72 2.54 11.63-9.26 14.61-12 6.26-5.77 14.51 5.08 20.94 15.75Z" class="color90d6d4 svgShape"/><circle cx="506.62" cy="432.54" r="6.16" fill="#c3e6e6" class="colorc3e6e6 svgShape"/><path fill="none" stroke="#c3e6e6" stroke-miterlimit="10" d="M410.97 165.41v-25.3h21.83M540.32 140.11h21.83v25.3M432.8 456.78h-21.83v-25.29M562.15 431.49v25.29h-21.83" class="colorStrokec3e6e6 svgStroke"/></g><rect width="140.52" height="167.3" x="416.3" y="214.8" fill="#fec942" opacity=".5" rx="10.85" ry="10.85" class="colorfec942 svgShape"/><path fill="#ff8e00" d="M556.82 329.77v41.48A10.85 10.85 0 0 1 546 382.1H427.14a10.85 10.85 0 0 1-10.85-10.85v-31.41c10.36-18 38.47-58.74 53.05-57.31s23.48 38.57 31.93 41.34c12.06 4 18.16-14.46 22.81-18.72 9.82-9 22.69 7.96 32.74 24.62Z" opacity=".5" class="colorff8e00 svgShape"/><circle cx="517.89" cy="275.15" r="9.61" fill="#ffffff" opacity=".75" class="colorfff svgShape"/><rect width="31.2" height="14.3" x="364.05" y="292.4" fill="#5559bc" rx="4.15" ry="4.15" transform="rotate(61.75 379.643 299.526)" class="color5559bc svgShape"/><circle cx="435.3" cy="269.64" r="60.69" fill="#6b6ce3" transform="rotate(-28.25 435.353 269.658)" class="color6b6ce3 svgShape"/><path fill="#ffffff" d="M476.82 294.5c-.46.76-.93 1.5-1.43 2.24a48.39 48.39 0 0 1-79.49 1 48.42 48.42 0 0 1-8-18.31 48.39 48.39 0 1 1 88.92 15.11Z" class="colorfff svgShape"/><path fill="#fec942" d="M476.82 294.5c-.46.76-.93 1.5-1.43 2.24a48.39 48.39 0 0 1-79.49 1 48.42 48.42 0 0 1-8-18.31 48.39 48.39 0 1 1 88.92 15.11Z" opacity=".5" class="colorfec942 svgShape"/><path fill="none" stroke="#011859" stroke-miterlimit="10" stroke-width=".75" d="M329.59 351.43c-7.51-9-14.41-16.48-14.41-16.48M358.63 352.32l-.11.11c-4.16 4.37-8.63 12.66-11 18.25a30.25 30.25 0 0 0-1.57 4.41" class="colorStroke011859 svgStroke"/><path fill="#ff9d9c" d="M255.24 378.36c2.68 1.49 7.4 1 8.49-.95.93-1.65 3-.43 4.37-1.22s1.08-2.58 1.94-2.72 3.3.5 5-7.1-2.44-7.67-3.08-4c0-1.39-2.94-2.36-3.44 2.08.1-2.87-3-3.14-3.8 2.26 0 0-1.8-2.4-3.3-.93s.47 6.24-.82 9.7Z" class="colorff9d9c svgShape"/><path fill="none" stroke="#011859" stroke-miterlimit="10" stroke-width=".75" d="M270.39 366.55a25 25 0 0 1-.69 5M265.81 369.62c-.13 1.94-.45 4.61-.45 4.61M272.38 382.7c1.56-.06 3.5-.07 5.73 0 17.27.29 51.18 3.14 51.18 3.14M244.69 324.32c-1.92-4.46-5.13-14.29-7.28-21.05-1.29-4.09-2.19-7.06-2.19-7.06" class="colorStroke011859 svgStroke"/><rect width="10.44" height="3.43" x="253.67" y="148.26" fill="#ffc5cb" rx="1.3" ry="1.3" class="colorffc5cb svgShape"/><rect width="10.44" height="3.43" x="273.45" y="148.26" fill="#ffc5cb" rx="1.3" ry="1.3" class="colorffc5cb svgShape"/><rect width="10.44" height="3.43" x="293.22" y="148.26" fill="#ffc5cb" rx="1.3" ry="1.3" class="colorffc5cb svgShape"/><path fill="none" stroke="#011859" stroke-miterlimit="10" stroke-width=".75" d="M281.62 330.33c1.24-12.31 4.47-19.42 4.47-19.42M277.16 317.62a36.26 36.26 0 005.07 7.92" class="colorStroke011859 svgStroke"/><path fill="#011859" d="M518.12 139.47h-63.13l-3.72-8.67h70.57l-3.72 8.67z" class="color011859 svgShape"/><rect width="53.56" height="7.46" x="459.78" y="118.05" fill="#ffffff" rx="3.73" ry="3.73" class="colorfff svgShape"/><circle cx="519.66" cy="121.78" r="2.18" fill="#ffffff" class="colorfff svgShape"/><circle cx="527.82" cy="121.78" r="3.73" fill="#ffffff" class="colorfff svgShape"/><path fill="#ff8e00" d="M475.39 296.73a48.39 48.39 0 0 1-79.49 1 48.42 48.42 0 0 1-8-18.31c17-20.26 34.77-36.17 47-35 17.04 1.68 29.61 31.64 40.49 52.31Z" opacity=".5" class="colorff8e00 svgShape"/><path fill="none" stroke="#011859" stroke-miterlimit="10" d="M550.62 378.06q.54 1.14 1.11 2.24" class="colorStroke011859 svgStroke"/><path fill="none" stroke="#011859" stroke-dasharray="5.01 5.01" stroke-miterlimit="10" d="M554.17 384.67c19.44 32 55.55 33.34 65.62 12.88 16.92-34.38 27.63-46.47 56.87-30.7" class="colorStroke011859 svgStroke"/><path fill="none" stroke="#011859" stroke-miterlimit="10" d="m678.86 368.06 2.16 1.26" class="colorStroke011859 svgStroke"/><path fill="#011859" d="m550.62 358.44-15.06-9.29-.52 17.68 5.5-2.96 3.68 8.04 5.59-3.01-4.69-7.5 5.5-2.96z" class="color011859 svgShape"/><rect width="39.88" height="42.38" x="132.06" y="191.81" fill="#c3e6e6" rx="7.93" ry="7.93" class="colorc3e6e6 svgShape"/><rect width="47.87" height="50.87" x="128.06" y="310.91" fill="#90d6d4" rx="7.93" ry="7.93" class="color90d6d4 svgShape"/><rect width="66.04" height="70.18" x="118.98" y="301.26" fill="none" stroke="#c3e6e6" stroke-miterlimit="10" rx="7.93" ry="7.93" class="colorStrokec3e6e6 svgStroke"/><path fill="none" stroke="#fff" stroke-linecap="round" stroke-linejoin="round" d="M150.58 229.9c-5.89-6.6-10.65-14.31-9.06-14.76s6.23 6 6.68 5.1-4.84-19.6-1.25-19.6c1.13 0 5 13.69 5 13.69" class="colorStrokefff svgStroke"/><path fill="none" stroke="#fff" stroke-linecap="round" stroke-linejoin="round" d="M151.26 212c1.63-.81 3.91-.94 4.61 0s3-.23 3.74 0c3.21 1 1.23 9.6 2.22 14.88M150.14 201.44h11.69M152.25 205.67h6.01M150.58 286.54c-5.89-6.6-10.65-14.31-9.06-14.76s6.23 6 6.68 5.1-4.84-19.6-1.25-19.6c1.13 0 5 13.69 5 13.69" class="colorStrokefff svgStroke"/><path fill="none" stroke="#fff" stroke-linecap="round" stroke-linejoin="round" d="M151.26 268.63c1.63-.81 3.91-.94 4.61 0s3-.23 3.74 0c3.21 1 1.23 9.6 2.22 14.88M148 353c-1.75-6.53-12.57-12.9-11.54-14.49 1.41-2.17 3.56-.47 8.73 2.07 8.21 4 15.08-20.72 18.3-19.08 2.65 1.35-6.77 19.88-6.77 19.88M158 338.94c2.81-3.69 5-2 5.12-.61.07.86 2.63.08 3.25 2 .4 1.26-1.54 3.25-.77 4 2.86 2.86-1.71 3.29-4 9.32M150.56 415.57c-2.74-7.84-6.27-7.38-4.94-12.12 2.19-7.82 4.23-4.93 3.25 1.19a1.23 1.23 0 0 0 1.77 1.12c1.92-1.06 2.08-5.79 2.22-6.74.22-1.54-.26-3-1.74-1.94-1 .69-1.84-.73-1.61-1.36a3.36 3.36 0 0 1 5.77-1.11c.76.84 1.69 7.58 1.69 7.58" class="colorStrokefff svgStroke"/><path fill="none" stroke="#fff" stroke-linecap="round" stroke-linejoin="round" d="M156.59 401.69c1.63-.81 2.44-.8 3.14.15s3.29-.3 4-.07c3.21 1-2.9 9.89-1.91 15.17M145.81 262.5a4 4 0 1 1 3.44-1" class="colorStrokefff svgStroke"/><path fill="none" stroke="#fff" stroke-linecap="round" stroke-linejoin="round" d="M140.3 254.62a7.43 7.43 0 0 1 12.43-.17M152.73 324.83a10.16 10.16 0 0 0-12.8 6.41" class="colorStrokefff svgStroke"/><path fill="#ffffff" d="m151.48 322.54.97 2.19-2.19.98 1.34.51 2.19-.97-.97-2.19-1.34-.52zM138.93 328.85l1.12 2.12 2.12-1.13-.42 1.38-2.12 1.12-1.12-2.12.42-1.37z" class="colorfff svgShape"/><path fill="none" stroke="#fff" stroke-linecap="round" stroke-linejoin="round" d="M156.56 391.85a22.77 22.77 0 0 1 5.9-2" class="colorStrokefff svgStroke"/><path fill="#ffffff" d="m159.1 392.51-2.27-.77.78-2.27-1.3.63-.77 2.27 2.27.78 1.29-.64z" class="colorfff svgShape"/><path fill="none" stroke="#fff" stroke-linecap="round" stroke-linejoin="round" d="M139.48 409a35.83 35.83 0 0 1 2.67-4.48" class="colorStrokefff svgStroke"/><path fill="#ffffff" d="m142.46 407.17-.45-2.36-2.35.45.81-1.19 2.35-.45.45 2.35-.81 1.2z" class="colorfff svgShape"/><path fill="none" stroke="#011859" stroke-miterlimit="10" stroke-width=".75" d="M335.58 495c9.67-4 24.26-6.51 19-37.45M292.45 466.71c8.14.11 25.92 6.25 24.85-10.42M273.13 430c1.37 9.39 5.18 23.76-8.35 25.44M236 467c0 .51 6.48 36.35 6.48 36.35M233.17 503.34l-6.92-31.53M196.68 456.22l4.35 26.39M275.48 385.81c-.27 6.37 5.3 16.68 9.41 19.19" class="colorStroke011859 svgStroke"/><path fill="none" stroke="#d0dafd" stroke-miterlimit="10" d="m214.91 467.18 8.31-.6-4.67-6.9-3.64 7.5zM337.09 463.23l3.59 7.52 4.72-6.87-8.31-.65zM249.79 495.75l8.24 1.21-3.07-7.75-5.17 6.54zM276.52 477.7l-5.17 6.54 8.24 1.21-3.07-7.75zM317.85 449.01l8.31.66-3.59-7.52-4.72 6.86zM283.09 390.62l5.5 6.26 2.67-7.89-8.17 1.63zM282.79 419.41l.33 8.33 7.05-4.46-7.38-3.87zM286.71 458.81l8.1 1.98-2.33-8-5.77 6.02zM253.43 468.86l5.76-6.02-8.09-1.98 2.33 8zM307.02 499.43l5.98-5.8-8.01-2.28 2.03 8.08zM326.02 418.23l5.18 6.53 3.07-7.75-8.25 1.22zM320.75 388.45l-1.17 8.25 7.73-3.11-6.56-5.14zM302.04 417.06l7.73-3.12-6.56-5.13-1.17 8.25z" class="colorStroked0dafd svgStroke"/><path fill="none" stroke="#011859" stroke-miterlimit="10" stroke-width=".75" d="M311.76 287.24a16.81 16.81 0 0 0 1.07 1.55 12.52 12.52 0 0 0 10 5.46M326.7 270.2c1.56 3.34 5.78 6.07 5.78 6.07a6.35 6.35 0 0 1-3.83 3.79M296.89 303.63s16.47-2.2 29.81 1.52M241.14 323.54c-3.71 4.54 2 11.92 8.53 17.17M217.73 335c-4.77-9.71-.16-24.54 8.53-25.86M359.17 356.78c3-3.62 2.53-15.37 2.53-15.37M353.92 378c8.75 3.3 18 .57 20.69-7.16" class="colorStroke011859 svgStroke"/><path fill="none" stroke="#fff" stroke-miterlimit="10" stroke-width="4" d="M396.67 256.94a40.53 40.53 0 0 1 19.38-23.12M462.46 239.35a40.67 40.67 0 0 1-39.48 69M338.25 131.35v60.46M362.32 131.35v60.46M386.38 131.35v60.46" class="colorStrokefff svgStroke"/><circle cx="338.25" cy="165.41" r="4.62" fill="#6b6ce3" class="color6b6ce3 svgShape"/><circle cx="362.32" cy="148.17" r="4.62" fill="#6b6ce3" class="color6b6ce3 svgShape"/><circle cx="386.38" cy="154.69" r="4.62" fill="#6b6ce3" class="color6b6ce3 svgShape"/></svg>